<?xml version="1.0" ?><!DOCTYPE svg  PUBLIC '-//W3C//DTD SVG 1.1//EN'  'http://www.w3.org/Graphics/SVG/1.1/DTD/svg11.dtd'><svg height="30px" id="Livello_1" style="enable-background:new 0 0 48 48;" version="1.1" viewBox="0 0 50 50" width="30px" xml:space="preserve" xmlns="http://www.w3.org/2000/svg" xmlns:xlink="http://www.w3.org/1999/xlink"><g><path d="M24.969,46.433c-5.914,0-11.28-2.378-15.121-6.28c-3.902-3.902-6.28-9.269-6.28-15.183s2.378-11.28,6.28-15.183   c3.841-3.842,9.207-6.22,15.121-6.22c5.916,0,11.281,2.378,15.183,6.22c3.902,3.902,6.279,9.269,6.279,15.183   s-2.377,11.28-6.279,15.183S30.885,46.433,24.969,46.433z M18.933,12.836c-1.28,0-2.317,1.098-2.317,2.378s1.037,2.317,2.317,2.317   s2.316-1.037,2.316-2.317S20.213,12.836,18.933,12.836z M20.823,18.934h-3.78v13.109h3.78V18.934z M26.434,18.934h-3.782v13.109   h3.782v-8.415c0.549-0.549,1.219-0.854,1.951-0.914c0.365-0.062,0.73,0.061,1.098,0.244c0.305,0.183,0.67,0.67,0.67,1.097v7.988   h3.719v-7.988c0-1.707-1.035-3.475-2.561-4.39c-1.402-0.731-3.414-0.854-4.877-0.122V18.934z"/></g></svg>