<svg width="653.4199707031249px" height="124.439990234375px" xmlns="http://www.w3.org/2000/svg" viewBox="-76.70998535156247 12.780004882812499 653.4199707031249 124.439990234375" style="background: none;" preserveAspectRatio="xMidYMid"><defs>
  <filter id="editing-scratch" x="-100%" y="-100%" width="300%" height="300%">
    <!-- COLOR -->
    <feFlood flood-color="#ddd" flood-opacity="0.75" result="COLOR-blu"></feFlood>
    <feFlood flood-color="#666" flood-opacity="0.4" result="COLOR-red"></feFlood>
    <!-- COLOR END -->

    <!-- Texture -->
    <feTurbulence baseFrequency=".05" type="fractalNoise" numOctaves="3" seed="0" result="Texture_10"></feTurbulence>
    <feColorMatrix type="matrix" values="0 0 0 0 0,
    0 0 0 0 0,
    0 0 0 0 0,
    0 0 0 -2.1 1.1" in="Texture_10" result="Texture_20"></feColorMatrix>

    <feColorMatrix result="Texture_30" type="matrix" values="0 0 0 0 0,
    0 0 0 0 0,
    0 0 0 0 0,
    0 0 0 -1.7 1.8" in="Texture_10"></feColorMatrix>
    <!-- Texture -->

    <!-- FILL -->
    <feOffset dx="-3" dy="4" in="SourceAlpha" result="FILL_10"></feOffset>
    <feDisplacementMap scale="17" in="FILL_10" in2="Texture_10" result="FILL_20"></feDisplacementMap>
    <feComposite operator="in" in="Texture_30" in2="FILL_20" result="FILL_40"></feComposite>
    <feComposite operator="in" in="COLOR-blu" in2="FILL_40" result="FILL_50"></feComposite>
    <!-- FILL END-->

    <!-- OUTLINE -->
    <feMorphology operator="dilate" radius="3" in="SourceGraphic" result="OUTLINE_10"></feMorphology>
    <feComposite operator="out" in="OUTLINE_10" in2="SourceGraphic" result="OUTLINE_20"></feComposite>
    <feDisplacementMap scale="7" in="OUTLINE_20" in2="Texture_10" result="OUTLINE_30"></feDisplacementMap>
    <feComposite operator="arithmetic" k2="-1" k3="1" in="Texture_20" in2="OUTLINE_30" result="OUTLINE_40"></feComposite>
    <!-- OUTLINE END-->

    <!-- BEVEL OUTLINE -->
    <feConvolveMatrix order="8,8" divisor="1" kernelMatrix="1 0 0 0 0 0 0 0 0 1 0 0 0 0 0 0 0 0 1 0 0 0 0 0 0 0 0 1 0 0 0 0 0 0 0 0 1 0 0 0 0 0 0 0 0 1 0 0 0 0 0 0 0 0 1 0 0 0 0 0 0 0 0 1 " in="SourceGraphic" result="BEVEL_10"></feConvolveMatrix>
    <feMorphology operator="dilate" radius="2" in="BEVEL_10" result="BEVEL_20"></feMorphology>
    <feComposite operator="out" in="BEVEL_20" in2="BEVEL_10" result="BEVEL_30"></feComposite>
    <feDisplacementMap scale="7" in="BEVEL_30" in2="Texture_10" result="BEVEL_40"></feDisplacementMap>
    <feComposite operator="arithmetic" k2="-1" k3="1" in="Texture_20" in2="BEVEL_40" result="BEVEL_50"></feComposite>
    <feOffset dx="-7" dy="-7" in="BEVEL_50" result="BEVEL_60"></feOffset>
    <feComposite operator="out" in="BEVEL_60" in2="OUTLINE_10" result="BEVEL_70"></feComposite>
    <!-- BEVEL OUTLINE END -->

    <!-- BEVEL FILL -->
    <feOffset dx="-9" dy="-9" in="BEVEL_10" result="BEVEL-FILL_10"></feOffset>
    <feComposite operator="out" in="BEVEL-FILL_10" in2="OUTLINE_10" result="BEVEL-FILL_20"></feComposite>
    <feDisplacementMap scale="17" in="BEVEL-FILL_20" in2="Texture_10" result="BEVEL-FILL_30"></feDisplacementMap>
    <feComposite operator="in" in="COLOR-red" in2="BEVEL-FILL_30" result="BEVEL-FILL_50"></feComposite> <!-- -->
    <!-- BEVEL FILL END-->

    <feMerge result="merge2">
     <feMergeNode in="BEVEL-FILL_50"></feMergeNode>
     <feMergeNode in="BEVEL_70"></feMergeNode>
     <feMergeNode in="FILL_50"></feMergeNode>
      <feMergeNode in="OUTLINE_40"></feMergeNode>
    </feMerge>
  </filter>
</defs>
<g filter="url(#editing-scratch)"><g transform="translate(18.10470712184906, 99)"><path d="M7.68 0L0.64 0L8.32-42.24L22.08-42.24L32.06-13.18L37.38-42.24L44.48-42.18L36.67 0L22.02 0L12.80-27.97L7.68 0ZM61.44-3.52L61.44-3.52L61.44-3.52Q59.46 1.28 53.12 1.28L53.12 1.28L53.12 1.28Q49.86 1.28 47.81-0.96L47.81-0.96L47.81-0.96Q46.08-2.94 46.08-4.93L46.08-4.93L46.08-4.93Q46.08-10.11 48.45-20.22L48.45-20.22L50.82-32.64L63.81-33.92L59.90-13.70L59.90-13.70Q58.82-8.96 58.82-7.30L58.82-7.30L58.82-7.30Q58.82-3.65 61.44-3.52ZM51.97-41.54L51.97-41.54L51.97-41.54Q51.97-44.03 54.05-45.38L54.05-45.38L54.05-45.38Q56.13-46.72 59.14-46.72L59.14-46.72L59.14-46.72Q62.14-46.72 63.97-45.38L63.97-45.38L63.97-45.38Q65.79-44.03 65.79-41.54L65.79-41.54L65.79-41.54Q65.79-39.04 63.78-37.76L63.78-37.76L63.78-37.76Q61.76-36.48 58.75-36.48L58.75-36.48L58.75-36.48Q55.74-36.48 53.86-37.76L53.86-37.76L53.86-37.76Q51.97-39.04 51.97-41.54ZM98.30-26.62L98.30-26.62L98.30-26.62Q98.30-23.94 96.06-22.27L96.06-22.27L96.06-22.27Q93.82-20.61 90.18-20.61L90.18-20.61L90.18-20.61Q88.64-20.61 87.74-21.06L87.74-21.06L87.74-21.06Q88.45-22.72 88.67-24.80L88.67-24.80L88.67-24.80Q88.90-26.88 88.90-27.46L88.90-27.46L88.90-27.46Q88.90-30.14 87.04-30.14L87.04-30.14L87.04-30.14Q85.76-30.14 84.32-28.54L84.32-28.54L84.32-28.54Q82.88-26.94 81.66-24.45L81.66-24.45L81.66-24.45Q78.98-18.69 78.98-12.86L78.98-12.86L78.98-12.86Q78.98-9.66 80.19-8.22L80.19-8.22L80.19-8.22Q81.41-6.78 84.10-6.78L84.10-6.78L84.10-6.78Q87.81-6.78 90.75-9.86L90.75-9.86L90.75-9.86Q91.58-10.82 92.03-11.90L92.03-11.90L92.03-11.90Q94.46-10.62 94.46-7.10L94.46-7.10L94.46-7.10Q94.46-3.52 90.50-1.15L90.50-1.15L90.50-1.15Q86.40 1.28 79.87 1.28L79.87 1.28L79.87 1.28Q66.88 1.28 66.88-12.48L66.88-12.48L66.88-12.48Q66.88-22.53 72.58-28.29L72.58-28.29L72.58-28.29Q78.08-33.92 88.19-33.92L88.19-33.92L88.19-33.92Q98.30-33.92 98.30-26.62ZM132.22-7.10L132.22-7.10L132.22-7.10Q132.22-4.29 135.10-3.46L135.10-3.46L135.10-3.46Q134.40-1.09 131.65 0.19L131.65 0.19L131.65 0.19Q129.34 1.28 126.82 1.28L126.82 1.28L126.82 1.28Q124.29 1.28 122.98 0.61L122.98 0.61L122.98 0.61Q121.66-0.06 120.96-1.15L120.96-1.15L120.96-1.15Q119.81-2.82 119.81-5.95L119.81-5.95L119.81-5.95Q119.81-7.81 120.83-12.93L120.83-12.93L121.73-17.79L121.73-17.79Q122.82-23.36 122.82-25.41L122.82-25.41L122.82-25.41Q122.82-28.99 120.83-28.99L120.83-28.99L120.83-28.99Q118.34-28.99 116.74-25.34L116.74-25.34L116.74-25.34Q116.10-23.94 115.65-21.82L115.65-21.82L111.30 0L98.43 1.28L107.46-44.80L120.32-46.08L119.81-43.52L119.81-43.52Q118.02-33.66 116.48-30.34L116.48-30.34L116.48-30.34Q120.06-33.92 126.66-33.92L126.66-33.92L126.66-33.92Q133.63-33.92 134.91-29.31L134.91-29.31L134.91-29.31Q135.36-27.84 135.36-26.56L135.36-26.56L135.36-26.56Q135.36-25.28 135.26-24.29L135.26-24.29L135.26-24.29Q135.17-23.30 134.85-21.50L134.85-21.50L134.02-16.90L132.54-9.66L132.54-9.66Q132.22-8.19 132.22-7.10ZM154.24 1.28L154.24 1.28L154.24 1.28Q140.16 1.28 140.16-11.97L140.16-11.97L140.16-11.97Q140.16-21.38 145.34-27.46L145.34-27.46L145.34-27.46Q150.85-33.92 160.38-33.92L160.38-33.92L160.38-33.92Q167.30-33.92 170.82-30.72L170.82-30.72L170.82-30.72Q174.34-27.52 174.34-20.80L174.34-20.80L174.34-20.80Q174.34-10.56 168.83-4.61L168.83-4.61L168.83-4.61Q163.46 1.28 154.24 1.28ZM155.90-26.56L155.90-26.56L155.90-26.56Q155.14-24.83 154.53-22.24L154.53-22.24L154.53-22.24Q153.92-19.65 153.15-15.55L153.15-15.55L153.15-15.55Q152.38-11.46 152.38-6.40L152.38-6.40L152.38-6.40Q152.38-4.74 152.93-3.65L152.93-3.65L152.93-3.65Q153.47-2.56 154.94-2.56L154.94-2.56L154.94-2.56Q156.42-2.56 157.34-3.26L157.34-3.26L157.34-3.26Q158.27-3.97 158.98-5.63L158.98-5.63L158.98-5.63Q160.26-8.58 161.28-14.05L161.28-14.05L161.28-14.05Q162.30-19.52 162.40-21.89L162.40-21.89L162.40-21.89Q162.50-24.26 162.50-26.02L162.50-26.02L162.50-26.02Q162.50-27.78 161.98-28.93L161.98-28.93L161.98-28.93Q161.47-30.08 160.03-30.08L160.03-30.08L160.03-30.08Q158.59-30.08 157.63-29.18L157.63-29.18L157.63-29.18Q156.67-28.29 155.90-26.56ZM193.41-3.52L193.41-3.52L193.41-3.52Q191.42 1.28 185.09 1.28L185.09 1.28L185.09 1.28Q181.89 1.28 179.84-0.96L179.84-0.96L179.84-0.96Q178.18-2.82 178.18-4.93L178.18-4.93L178.18-4.93Q178.18-9.73 180.42-20.22L180.42-20.22L185.09-44.80L198.08-46.08L191.87-13.70L191.87-13.70Q190.78-8.96 190.78-7.30L190.78-7.30L190.78-7.30Q190.78-3.65 193.41-3.52ZM201.63-1.92L201.63-1.92L201.63-1.92Q200.13-3.58 199.46-6.21L199.46-6.21L199.46-6.21Q198.78-8.83 198.78-13.12L198.78-13.12L198.78-13.12Q198.78-17.41 200.26-21.31L200.26-21.31L200.26-21.31Q201.73-25.22 204.42-28.03L204.42-28.03L204.42-28.03Q209.92-33.92 219.01-33.92L219.01-33.92L219.01-33.92Q222.27-33.92 224.64-32.83L224.64-32.83L235.58-33.92L230.85-8.96L230.85-8.96Q230.66-8.19 230.66-6.78L230.66-6.78L230.66-6.78Q230.66-5.38 231.52-4.48L231.52-4.48L231.52-4.48Q232.38-3.58 233.66-3.46L233.66-3.46L233.66-3.46Q233.02-1.28 230.69 0L230.69 0L230.69 0Q228.35 1.28 225.73 1.28L225.73 1.28L225.73 1.28Q223.10 1.28 221.34 0.29L221.34 0.29L221.34 0.29Q219.58-0.70 219.07-2.37L219.07-2.37L219.07-2.37Q218.05-0.77 215.87 0.26L215.87 0.26L215.87 0.26Q213.70 1.28 210.78 1.28L210.78 1.28L210.78 1.28Q207.87 1.28 205.50 0.51L205.50 0.51L205.50 0.51Q203.14-0.26 201.63-1.92ZM215.14-27.90L215.14-27.90L215.14-27.90Q214.40-26.75 213.76-24.80L213.76-24.80L213.76-24.80Q213.12-22.85 212.06-17.63L212.06-17.63L212.06-17.63Q211.01-12.42 211.01-8.70L211.01-8.70L211.01-8.70Q211.01-4.99 211.58-3.90L211.58-3.90L211.58-3.90Q212.16-2.82 213.18-2.82L213.18-2.82L213.18-2.82Q215.23-2.82 216.74-4.77L216.74-4.77L216.74-4.77Q218.24-6.72 218.82-10.18L218.82-10.18L222.21-28.93L222.21-28.93Q220.86-30.08 219.30-30.08L219.30-30.08L219.30-30.08Q217.73-30.08 216.80-29.57L216.80-29.57L216.80-29.57Q215.87-29.06 215.14-27.90ZM258.18-22.46L258.18-22.46L258.18-22.46Q259.07-24.83 259.07-26.88L259.07-26.88L259.07-26.88Q259.07-30.66 256-30.66L256-30.66L256-30.66Q254.40-30.66 253.09-29.22L253.09-29.22L253.09-29.22Q251.78-27.78 251.78-25.98L251.78-25.98L251.78-25.98Q251.78-24.70 252.80-23.68L252.80-23.68L252.80-23.68Q254.27-22.27 258.05-19.97L258.05-19.97L258.05-19.97Q261.82-17.66 263.26-15.78L263.26-15.78L263.26-15.78Q264.70-13.89 264.70-11.30L264.70-11.30L264.70-11.30Q264.70-8.70 263.46-6.34L263.46-6.34L263.46-6.34Q262.21-3.97 259.97-2.30L259.97-2.30L259.97-2.30Q255.17 1.28 247.49 1.28L247.49 1.28L247.49 1.28Q243.33 1.28 240.13-0.90L240.13-0.90L240.13-0.90Q236.93-3.01 236.93-5.50L236.93-5.50L236.93-5.50Q236.93-8 238.75-9.47L238.75-9.47L238.75-9.47Q240.58-10.94 243.26-10.94L243.26-10.94L243.26-10.94Q245.95-10.94 247.62-9.92L247.62-9.92L247.62-9.92Q246.78-7.81 246.78-6.40L246.78-6.40L246.78-6.40Q246.78-2.18 250.37-2.18L250.37-2.18L250.37-2.18Q251.90-2.18 252.93-3.14L252.93-3.14L252.93-3.14Q253.95-4.10 253.95-5.76L253.95-5.76L253.95-5.76Q253.95-9.02 248.45-12.48L248.45-12.48L248.45-12.48Q243.97-15.42 242.94-16.58L242.94-16.58L242.94-16.58Q241.22-18.62 241.22-21.18L241.22-21.18L241.22-21.18Q241.22-23.74 242.43-26.18L242.43-26.18L242.43-26.18Q243.65-28.61 245.89-30.34L245.89-30.34L245.89-30.34Q250.56-33.92 258.69-33.92L258.69-33.92L258.69-33.92Q262.85-33.92 265.31-32.26L265.31-32.26L265.31-32.26Q267.78-30.59 267.78-27.78L267.78-27.78L267.78-27.78Q267.78-24.96 266.08-23.36L266.08-23.36L266.08-23.36Q264.38-21.76 261.31-21.76L261.31-21.76L261.31-21.76Q259.20-21.76 258.18-22.46ZM309.25-20.61L322.18-21.76L322.18-21.76Q317.57-11.65 317.57 0.06L317.57 0.06L317.57 0.06Q315.84 1.28 313.31 1.28L313.31 1.28L313.31 1.28Q310.78 1.28 309.18 0.10L309.18 0.10L309.18 0.10Q307.58-1.09 307.26-2.30L307.26-2.30L307.26-2.30Q305.66-0.64 303.07 0.32L303.07 0.32L303.07 0.32Q300.48 1.28 297.73 1.28L297.73 1.28L297.73 1.28Q294.98 1.28 292.58 0.38L292.58 0.38L292.58 0.38Q290.18-0.51 288.32-2.50L288.32-2.50L288.32-2.50Q284.22-6.85 284.22-15.10L284.22-15.10L284.22-15.10Q284.22-27.90 291.07-35.58L291.07-35.58L291.07-35.58Q298.11-43.52 310.59-43.52L310.59-43.52L310.59-43.52Q319.23-43.52 322.30-39.04L322.30-39.04L322.30-39.04Q323.26-37.63 323.26-35.94L323.26-35.94L323.26-35.94Q323.26-34.24 322.53-32.80L322.53-32.80L322.53-32.80Q321.79-31.36 320.64-30.21L320.64-30.21L320.64-30.21Q317.89-27.65 314.50-27.65L314.50-27.65L314.50-27.65Q313.15-27.65 311.87-28.10L311.87-28.10L311.87-28.10Q312.13-30.02 312.13-32.26L312.13-32.26L312.13-32.26Q312.13-34.50 311.97-35.52L311.97-35.52L311.97-35.52Q311.81-36.54 311.42-37.38L311.42-37.38L311.42-37.38Q310.59-39.10 308.77-39.10L308.77-39.10L308.77-39.10Q306.94-39.10 304.93-37.15L304.93-37.15L304.93-37.15Q302.91-35.20 301.31-32L301.31-32L301.31-32Q297.79-24.83 297.79-16.19L297.79-16.19L297.79-16.19Q297.79-12.22 299.33-9.41L299.33-9.41L299.33-9.41Q300.99-6.34 303.94-6.34L303.94-6.34L303.94-6.34Q304.96-6.34 305.89-6.85L305.89-6.85L305.89-6.85Q306.82-7.36 307.20-7.74L307.20-7.74L309.25-20.61ZM339.26 1.28L339.26 1.28L339.26 1.28Q325.18 1.28 325.18-11.97L325.18-11.97L325.18-11.97Q325.18-21.38 330.37-27.46L330.37-27.46L330.37-27.46Q335.87-33.92 345.41-33.92L345.41-33.92L345.41-33.92Q352.32-33.92 355.84-30.72L355.84-30.72L355.84-30.72Q359.36-27.52 359.36-20.80L359.36-20.80L359.36-20.80Q359.36-10.56 353.86-4.61L353.86-4.61L353.86-4.61Q348.48 1.28 339.26 1.28ZM340.93-26.56L340.93-26.56L340.93-26.56Q340.16-24.83 339.55-22.24L339.55-22.24L339.55-22.24Q338.94-19.65 338.18-15.55L338.18-15.55L338.18-15.55Q337.41-11.46 337.41-6.40L337.41-6.40L337.41-6.40Q337.41-4.74 337.95-3.65L337.95-3.65L337.95-3.65Q338.50-2.56 339.97-2.56L339.97-2.56L339.97-2.56Q341.44-2.56 342.37-3.26L342.37-3.26L342.37-3.26Q343.30-3.97 344-5.63L344-5.63L344-5.63Q345.28-8.58 346.30-14.05L346.30-14.05L346.30-14.05Q347.33-19.52 347.42-21.89L347.42-21.89L347.42-21.89Q347.52-24.26 347.52-26.02L347.52-26.02L347.52-26.02Q347.52-27.78 347.01-28.93L347.01-28.93L347.01-28.93Q346.50-30.08 345.06-30.08L345.06-30.08L345.06-30.08Q343.62-30.08 342.66-29.18L342.66-29.18L342.66-29.18Q341.70-28.29 340.93-26.56ZM383.68-2.69L383.68-2.69L383.68-2.69Q380.61 1.28 372.99 1.28L372.99 1.28L372.99 1.28Q369.02 1.28 366.14-1.12L366.14-1.12L366.14-1.12Q363.26-3.52 363.26-6.98L363.26-6.98L363.26-6.98Q363.26-8.90 363.46-9.86L363.46-9.86L367.74-32.64L380.74-33.92L376.06-9.22L376.06-9.22Q375.81-7.81 375.81-6.98L375.81-6.98L375.81-6.98Q375.81-3.26 378.05-3.26L378.05-3.26L378.05-3.26Q380.54-3.26 382.34-6.66L382.34-6.66L382.34-6.66Q382.91-7.74 383.17-9.15L383.17-9.15L387.71-32.64L400.32-33.92L395.58-8.96L395.58-8.96Q395.39-8 395.39-6.98L395.39-6.98L395.39-6.98Q395.39-5.95 395.97-4.83L395.97-4.83L395.97-4.83Q396.54-3.71 398.40-3.46L398.40-3.46L398.40-3.46Q398.02-1.92 396.67-0.90L396.67-0.90L396.67-0.90Q393.86 1.28 390.82 1.28L390.82 1.28L390.82 1.28Q387.78 1.28 385.98 0.19L385.98 0.19L385.98 0.19Q384.19-0.90 383.68-2.69ZM419.07-3.52L419.07-3.52L419.07-3.52Q417.09 1.28 410.75 1.28L410.75 1.28L410.75 1.28Q407.55 1.28 405.50-0.96L405.50-0.96L405.50-0.96Q403.84-2.82 403.84-4.93L403.84-4.93L403.84-4.93Q403.84-9.73 406.08-20.22L406.08-20.22L410.75-44.80L423.74-46.08L417.54-13.70L417.54-13.70Q416.45-8.96 416.45-7.30L416.45-7.30L416.45-7.30Q416.45-3.65 419.07-3.52ZM444.67-33.92L444.67-33.92L444.67-33.92Q446.98-33.92 448.77-33.41L448.77-33.41L448.77-33.41Q448.83-33.66 448.96-34.37L448.96-34.37L449.28-36.35L449.28-36.35Q449.54-37.63 449.92-39.74L449.92-39.74L450.94-44.80L463.68-46.08L456.58-8.96L456.58-8.96Q456.51-8.58 456.51-7.94L456.51-7.94L456.51-6.91L456.51-6.91Q456.51-5.50 457.22-4.45L457.22-4.45L457.22-4.45Q457.92-3.39 459.07-3.39L459.07-3.39L459.07-3.39Q457.79-0.38 453.89 0.90L453.89 0.90L453.89 0.90Q452.54 1.28 450.66 1.28L450.66 1.28L450.66 1.28Q448.77 1.28 447.04 0.29L447.04 0.29L447.04 0.29Q445.31-0.70 444.80-2.37L444.80-2.37L444.80-2.37Q443.78-0.70 441.73 0.29L441.73 0.29L441.73 0.29Q439.68 1.28 436.70 1.28L436.70 1.28L436.70 1.28Q433.73 1.28 431.26 0.51L431.26 0.51L431.26 0.51Q428.80-0.26 427.26-1.92L427.26-1.92L427.26-1.92Q424.45-5.18 424.45-12.61L424.45-12.61L424.45-12.61Q424.45-22.21 430.08-28.03L430.08-28.03L430.08-28.03Q435.71-33.92 444.67-33.92ZM444.22-30.08L444.22-30.08L444.22-30.08Q441.86-30.08 440.58-27.52L440.58-27.52L440.58-27.52Q439.30-24.96 437.98-18.62L437.98-18.62L437.98-18.62Q436.67-12.29 436.67-6.59L436.67-6.59L436.67-6.59Q436.67-2.69 438.98-2.69L438.98-2.69L438.98-2.69Q441.02-2.69 442.46-4.74L442.46-4.74L442.46-4.74Q443.90-6.78 444.48-10.18L444.48-10.18L447.94-28.93L447.94-28.93Q446.59-30.08 444.22-30.08Z" fill="#000"></path></g></g><style>text {
  font-size: 64px;
  font-family: Arial Black;
  dominant-baseline: central;
  text-anchor: middle;
}</style></svg>